<svg width="117.12" height="22.56" viewBox="0 0 117.12 22.56" xmlns="http://www.w3.org/2000/svg"><g id="svgGroup" stroke-linecap="round" fill-rule="evenodd" font-size="9pt" stroke="#c4b7b7" stroke-width="0.50mm" fill="#bab3b3" style="stroke:#c4b7b7;stroke-width:0.50mm;fill:#bab3b3"><path d="M 105.33 20.94 L 106.47 18.69 Q 107.25 19.35 108.435 19.785 A 7.222 7.222 0 0 0 110.718 20.216 A 8.239 8.239 0 0 0 110.97 20.22 A 8.134 8.134 0 0 0 111.895 20.171 Q 112.851 20.061 113.44 19.705 A 2.321 2.321 0 0 0 113.505 19.665 A 2.235 2.235 0 0 0 113.965 19.277 A 1.516 1.516 0 0 0 114.36 18.24 A 2.137 2.137 0 0 0 114.266 17.596 A 1.864 1.864 0 0 0 114.045 17.13 Q 113.73 16.65 112.89 16.185 Q 112.131 15.765 110.76 15.284 A 31.082 31.082 0 0 0 110.46 15.18 A 13.985 13.985 0 0 1 109.141 14.657 Q 107.911 14.09 107.175 13.395 A 3.397 3.397 0 0 1 106.187 11.596 A 5.038 5.038 0 0 1 106.08 10.53 A 3.636 3.636 0 0 1 107.264 7.825 A 5.239 5.239 0 0 1 107.655 7.485 A 5.33 5.33 0 0 1 109.466 6.571 Q 110.233 6.343 111.152 6.272 A 11.258 11.258 0 0 1 112.02 6.24 A 12.238 12.238 0 0 1 113.354 6.309 Q 114.068 6.388 114.69 6.555 A 11.631 11.631 0 0 1 115.93 6.962 A 9.333 9.333 0 0 1 116.79 7.35 L 116.04 9.57 A 7.358 7.358 0 0 0 114.94 9.04 A 9.058 9.058 0 0 0 114.195 8.79 A 7.507 7.507 0 0 0 112.85 8.536 A 9.551 9.551 0 0 0 111.9 8.49 A 6.19 6.19 0 0 0 111.019 8.548 Q 110.093 8.682 109.53 9.12 Q 108.992 9.538 108.811 10.01 A 1.359 1.359 0 0 0 108.72 10.5 A 1.476 1.476 0 0 0 109.169 11.565 A 2.125 2.125 0 0 0 109.35 11.73 Q 109.97 12.232 111.75 12.82 A 25.298 25.298 0 0 0 111.81 12.84 Q 114.378 13.696 115.6 14.709 A 4.484 4.484 0 0 1 115.95 15.03 A 4.079 4.079 0 0 1 117.115 17.804 A 5.369 5.369 0 0 1 117.12 18.03 A 4.162 4.162 0 0 1 116.801 19.685 Q 116.411 20.595 115.545 21.256 A 4.986 4.986 0 0 1 115.425 21.345 Q 114.003 22.364 111.768 22.528 A 12.127 12.127 0 0 1 110.88 22.56 A 11.997 11.997 0 0 1 109.122 22.437 A 9.284 9.284 0 0 1 107.685 22.11 A 9.265 9.265 0 0 1 106.533 21.665 Q 105.939 21.385 105.464 21.041 A 5.468 5.468 0 0 1 105.33 20.94 Z M 53.01 8.16 L 53.01 0 L 55.71 0 L 55.71 18.42 A 3.645 3.645 0 0 0 55.74 18.911 Q 55.817 19.475 56.089 19.761 A 0.89 0.89 0 0 0 56.265 19.905 Q 56.82 20.25 57.48 20.25 L 56.91 22.35 Q 54.095 22.35 53.446 20.126 A 4.022 4.022 0 0 1 53.43 20.07 A 5.846 5.846 0 0 1 52.581 21.015 Q 52.155 21.402 51.62 21.757 A 9.689 9.689 0 0 1 51.585 21.78 Q 50.4 22.56 48.6 22.56 Q 46.68 22.56 45.09 21.57 A 6.808 6.808 0 0 1 42.829 19.233 A 8.287 8.287 0 0 1 42.57 18.765 A 8.26 8.26 0 0 1 41.793 16.382 A 11.166 11.166 0 0 1 41.64 14.49 A 10.182 10.182 0 0 1 41.907 12.116 A 8.389 8.389 0 0 1 42.585 10.26 Q 43.53 8.4 45.105 7.32 Q 46.68 6.24 48.57 6.24 A 6.493 6.493 0 0 1 49.852 6.361 A 4.783 4.783 0 0 1 51.255 6.87 A 10.303 10.303 0 0 1 52.029 7.347 Q 52.396 7.597 52.687 7.852 A 4.977 4.977 0 0 1 53.01 8.16 Z M 98.61 8.16 L 98.61 0 L 101.31 0 L 101.31 18.42 A 3.645 3.645 0 0 0 101.34 18.911 Q 101.417 19.475 101.689 19.761 A 0.89 0.89 0 0 0 101.865 19.905 Q 102.42 20.25 103.08 20.25 L 102.51 22.35 Q 99.695 22.35 99.046 20.126 A 4.022 4.022 0 0 1 99.03 20.07 A 5.846 5.846 0 0 1 98.181 21.015 Q 97.755 21.402 97.22 21.757 A 9.689 9.689 0 0 1 97.185 21.78 Q 96 22.56 94.2 22.56 Q 92.28 22.56 90.69 21.57 A 6.808 6.808 0 0 1 88.429 19.233 A 8.287 8.287 0 0 1 88.17 18.765 A 8.26 8.26 0 0 1 87.393 16.382 A 11.166 11.166 0 0 1 87.24 14.49 A 10.182 10.182 0 0 1 87.507 12.116 A 8.389 8.389 0 0 1 88.185 10.26 Q 89.13 8.4 90.705 7.32 Q 92.28 6.24 94.17 6.24 A 6.493 6.493 0 0 1 95.452 6.361 A 4.783 4.783 0 0 1 96.855 6.87 A 10.303 10.303 0 0 1 97.629 7.347 Q 97.996 7.597 98.287 7.852 A 4.977 4.977 0 0 1 98.61 8.16 Z M 2.85 22.2 L 0 22.2 L 0 1.26 A 33.685 33.685 0 0 1 1.294 1.129 A 44.267 44.267 0 0 1 2.715 1.035 A 60.242 60.242 0 0 1 5.394 0.961 A 66.578 66.578 0 0 1 5.79 0.96 A 13.787 13.787 0 0 1 7.782 1.096 Q 8.846 1.252 9.741 1.585 A 7.803 7.803 0 0 1 10.23 1.785 Q 12.06 2.61 13.02 4.05 A 5.744 5.744 0 0 1 13.974 7.055 A 7.019 7.019 0 0 1 13.98 7.35 A 7.577 7.577 0 0 1 13.768 9.187 A 5.78 5.78 0 0 1 12.87 11.16 A 6.694 6.694 0 0 1 10.605 13.149 A 8.42 8.42 0 0 1 9.78 13.545 A 10.432 10.432 0 0 1 7.353 14.212 A 14.158 14.158 0 0 1 5.19 14.37 A 31.207 31.207 0 0 1 3.829 14.342 A 24.878 24.878 0 0 1 2.85 14.28 L 2.85 22.2 Z M 27.36 7.86 L 27.36 6.6 L 29.82 6.6 L 29.82 18.42 A 3.645 3.645 0 0 0 29.85 18.911 Q 29.927 19.475 30.199 19.761 A 0.89 0.89 0 0 0 30.375 19.905 Q 30.93 20.25 31.59 20.25 L 31.02 22.35 Q 28.211 22.35 27.571 20.124 A 4.076 4.076 0 0 1 27.54 20.01 A 6.392 6.392 0 0 1 26.607 21.038 A 8.549 8.549 0 0 1 25.665 21.765 A 4.478 4.478 0 0 1 24.179 22.396 Q 23.574 22.538 22.868 22.557 A 8.162 8.162 0 0 1 22.65 22.56 Q 20.7 22.56 19.11 21.57 A 6.884 6.884 0 0 1 16.886 19.312 A 8.377 8.377 0 0 1 16.575 18.765 A 8.168 8.168 0 0 1 15.786 16.382 A 10.993 10.993 0 0 1 15.63 14.49 A 9.943 9.943 0 0 1 15.929 12.009 A 8.39 8.39 0 0 1 16.575 10.29 Q 17.52 8.43 19.185 7.335 A 6.689 6.689 0 0 1 22.543 6.253 A 8.216 8.216 0 0 1 23.01 6.24 A 6.775 6.775 0 0 1 24.448 6.387 A 5.611 5.611 0 0 1 25.455 6.705 A 7.801 7.801 0 0 1 26.741 7.393 A 6.631 6.631 0 0 1 27.36 7.86 Z M 80.76 7.86 L 80.76 6.6 L 83.22 6.6 L 83.22 18.42 A 3.645 3.645 0 0 0 83.25 18.911 Q 83.327 19.475 83.599 19.761 A 0.89 0.89 0 0 0 83.775 19.905 Q 84.33 20.25 84.99 20.25 L 84.42 22.35 Q 81.611 22.35 80.971 20.124 A 4.076 4.076 0 0 1 80.94 20.01 A 6.392 6.392 0 0 1 80.007 21.038 A 8.549 8.549 0 0 1 79.065 21.765 A 4.478 4.478 0 0 1 77.579 22.396 Q 76.974 22.538 76.268 22.557 A 8.162 8.162 0 0 1 76.05 22.56 Q 74.1 22.56 72.51 21.57 A 6.884 6.884 0 0 1 70.286 19.312 A 8.377 8.377 0 0 1 69.975 18.765 A 8.168 8.168 0 0 1 69.186 16.382 A 10.993 10.993 0 0 1 69.03 14.49 A 9.943 9.943 0 0 1 69.329 12.009 A 8.39 8.39 0 0 1 69.975 10.29 Q 70.92 8.43 72.585 7.335 A 6.689 6.689 0 0 1 75.943 6.253 A 8.216 8.216 0 0 1 76.41 6.24 A 6.775 6.775 0 0 1 77.848 6.387 A 5.611 5.611 0 0 1 78.855 6.705 A 7.801 7.801 0 0 1 80.141 7.393 A 6.631 6.631 0 0 1 80.76 7.86 Z M 37.89 22.2 L 35.19 22.2 L 35.19 6.6 L 37.89 6.6 L 37.89 22.2 Z M 27.12 18.21 L 27.12 9.84 Q 26.31 9.27 25.335 8.925 Q 24.36 8.58 23.28 8.58 A 4.777 4.777 0 0 0 21.789 8.806 A 4.207 4.207 0 0 0 20.745 9.315 Q 19.65 10.05 19.02 11.355 Q 18.39 12.66 18.39 14.4 Q 18.39 16.08 19.02 17.385 A 5.281 5.281 0 0 0 19.952 18.749 A 4.709 4.709 0 0 0 20.76 19.425 Q 21.87 20.16 23.25 20.16 Q 24.39 20.16 25.41 19.605 Q 26.43 19.05 27.12 18.21 Z M 80.52 18.21 L 80.52 9.84 Q 79.71 9.27 78.735 8.925 Q 77.76 8.58 76.68 8.58 A 4.777 4.777 0 0 0 75.189 8.806 A 4.207 4.207 0 0 0 74.145 9.315 Q 73.05 10.05 72.42 11.355 Q 71.79 12.66 71.79 14.4 Q 71.79 16.08 72.42 17.385 A 5.281 5.281 0 0 0 73.352 18.749 A 4.709 4.709 0 0 0 74.16 19.425 Q 75.27 20.16 76.65 20.16 Q 77.79 20.16 78.81 19.605 Q 79.83 19.05 80.52 18.21 Z M 53.01 18.27 L 53.01 10.53 Q 52.497 9.882 51.621 9.32 A 8.442 8.442 0 0 0 51.42 9.195 Q 50.4 8.58 49.17 8.58 Q 47.73 8.58 46.65 9.36 A 5.007 5.007 0 0 0 45.099 11.205 A 5.977 5.977 0 0 0 44.985 11.445 A 6.657 6.657 0 0 0 44.463 13.354 A 8.434 8.434 0 0 0 44.4 14.4 A 7.427 7.427 0 0 0 44.578 16.056 A 6.098 6.098 0 0 0 45.03 17.355 A 5.461 5.461 0 0 0 45.942 18.709 A 4.837 4.837 0 0 0 46.755 19.41 A 4.229 4.229 0 0 0 49.2 20.16 Q 50.31 20.16 51.315 19.635 Q 52.32 19.11 53.01 18.27 Z M 98.61 18.27 L 98.61 10.53 Q 98.097 9.882 97.221 9.32 A 8.442 8.442 0 0 0 97.02 9.195 Q 96 8.58 94.77 8.58 Q 93.33 8.58 92.25 9.36 A 5.007 5.007 0 0 0 90.699 11.205 A 5.977 5.977 0 0 0 90.585 11.445 A 6.657 6.657 0 0 0 90.063 13.354 A 8.434 8.434 0 0 0 90 14.4 A 7.427 7.427 0 0 0 90.178 16.056 A 6.098 6.098 0 0 0 90.63 17.355 A 5.461 5.461 0 0 0 91.542 18.709 A 4.837 4.837 0 0 0 92.355 19.41 A 4.229 4.229 0 0 0 94.8 20.16 Q 95.91 20.16 96.915 19.635 Q 97.92 19.11 98.61 18.27 Z M 2.85 3.48 L 2.85 11.85 Q 3.18 11.891 3.609 11.925 A 28.877 28.877 0 0 0 4.02 11.955 Q 4.71 12 5.55 12 A 9.549 9.549 0 0 0 7.164 11.872 Q 8.699 11.609 9.69 10.8 A 3.869 3.869 0 0 0 11.147 7.967 A 5.196 5.196 0 0 0 11.16 7.59 A 4.336 4.336 0 0 0 10.932 6.152 A 3.641 3.641 0 0 0 9.75 4.5 Q 8.34 3.36 5.73 3.36 A 39.337 39.337 0 0 0 4.753 3.372 A 32.981 32.981 0 0 0 4.2 3.39 A 27.382 27.382 0 0 0 3.335 3.439 A 22.512 22.512 0 0 0 2.85 3.48 Z M 35.231 3.386 A 1.792 1.792 0 0 0 36.54 3.93 A 2.453 2.453 0 0 0 36.989 3.891 A 1.694 1.694 0 0 0 37.92 3.405 A 1.733 1.733 0 0 0 38.347 2.665 A 2.253 2.253 0 0 0 38.43 2.04 A 2.176 2.176 0 0 0 38.43 2.016 A 1.818 1.818 0 0 0 37.875 0.705 Q 37.32 0.15 36.54 0.15 Q 35.67 0.15 35.16 0.66 Q 34.65 1.17 34.65 2.04 A 1.797 1.797 0 0 0 34.798 2.766 A 1.993 1.993 0 0 0 35.205 3.36 A 2.242 2.242 0 0 0 35.231 3.386 Z" vector-effect="non-scaling-stroke"/></g></svg>