<svg width="167.91" height="28.8" viewBox="0 0 167.91 28.8" xmlns="http://www.w3.org/2000/svg"><g id="svgGroup" stroke-linecap="round" fill-rule="evenodd" font-size="9pt" stroke="#c4b7b7" stroke-width="0.50mm" fill="#bab3b3" style="stroke:#c4b7b7;stroke-width:0.50mm;fill:#bab3b3"><path d="M 2.7 22.2 L 0 22.2 L 0 1.2 L 3.99 1.2 L 9.81 14.49 L 15.54 1.2 L 19.62 1.2 L 19.62 22.2 L 16.77 22.2 L 16.77 4.83 L 11.16 17.46 L 8.34 17.46 L 2.7 4.83 L 2.7 22.2 Z M 156.12 20.94 L 157.26 18.69 Q 158.04 19.35 159.225 19.785 A 7.222 7.222 0 0 0 161.508 20.216 A 8.239 8.239 0 0 0 161.76 20.22 A 8.134 8.134 0 0 0 162.685 20.171 Q 163.641 20.061 164.23 19.705 A 2.321 2.321 0 0 0 164.295 19.665 A 2.235 2.235 0 0 0 164.755 19.277 A 1.516 1.516 0 0 0 165.15 18.24 A 2.137 2.137 0 0 0 165.056 17.596 A 1.864 1.864 0 0 0 164.835 17.13 Q 164.52 16.65 163.68 16.185 Q 162.921 15.765 161.55 15.284 A 31.082 31.082 0 0 0 161.25 15.18 A 13.985 13.985 0 0 1 159.931 14.657 Q 158.701 14.09 157.965 13.395 A 3.397 3.397 0 0 1 156.977 11.596 A 5.038 5.038 0 0 1 156.87 10.53 A 3.636 3.636 0 0 1 158.054 7.825 A 5.239 5.239 0 0 1 158.445 7.485 A 5.33 5.33 0 0 1 160.256 6.571 Q 161.023 6.343 161.942 6.272 A 11.258 11.258 0 0 1 162.81 6.24 A 12.238 12.238 0 0 1 164.144 6.309 Q 164.858 6.388 165.48 6.555 A 11.631 11.631 0 0 1 166.72 6.962 A 9.333 9.333 0 0 1 167.58 7.35 L 166.83 9.57 A 7.358 7.358 0 0 0 165.73 9.04 A 9.058 9.058 0 0 0 164.985 8.79 A 7.507 7.507 0 0 0 163.64 8.536 A 9.551 9.551 0 0 0 162.69 8.49 A 6.19 6.19 0 0 0 161.809 8.548 Q 160.883 8.682 160.32 9.12 Q 159.782 9.538 159.601 10.01 A 1.359 1.359 0 0 0 159.51 10.5 A 1.476 1.476 0 0 0 159.959 11.565 A 2.125 2.125 0 0 0 160.14 11.73 Q 160.76 12.232 162.54 12.82 A 25.298 25.298 0 0 0 162.6 12.84 Q 165.168 13.696 166.39 14.709 A 4.484 4.484 0 0 1 166.74 15.03 A 4.079 4.079 0 0 1 167.905 17.804 A 5.369 5.369 0 0 1 167.91 18.03 A 4.162 4.162 0 0 1 167.591 19.685 Q 167.201 20.595 166.335 21.256 A 4.986 4.986 0 0 1 166.215 21.345 Q 164.793 22.364 162.558 22.528 A 12.127 12.127 0 0 1 161.67 22.56 A 11.997 11.997 0 0 1 159.912 22.437 A 9.284 9.284 0 0 1 158.475 22.11 A 9.265 9.265 0 0 1 157.323 21.665 Q 156.729 21.385 156.254 21.041 A 5.468 5.468 0 0 1 156.12 20.94 Z M 124.56 28.8 L 121.86 28.8 L 121.86 10.59 Q 121.86 9.988 121.687 9.589 A 1.261 1.261 0 0 0 121.365 9.135 A 1.716 1.716 0 0 0 120.528 8.738 A 2.397 2.397 0 0 0 120.09 8.7 L 120.66 6.6 A 5.257 5.257 0 0 1 121.928 6.741 Q 123.595 7.156 124.11 8.79 Q 124.41 8.34 125.085 7.74 A 5.671 5.671 0 0 1 125.895 7.145 A 7.671 7.671 0 0 1 126.765 6.69 A 5.086 5.086 0 0 1 128.133 6.303 A 6.566 6.566 0 0 1 129.06 6.24 Q 130.86 6.24 132.435 7.185 A 6.699 6.699 0 0 1 134.588 9.275 A 8.239 8.239 0 0 1 134.97 9.915 A 7.705 7.705 0 0 1 135.719 12.027 Q 135.91 12.958 135.928 14.027 A 13.282 13.282 0 0 1 135.93 14.25 A 10.971 10.971 0 0 1 135.719 16.449 A 8.432 8.432 0 0 1 134.97 18.615 A 8.354 8.354 0 0 1 133.79 20.365 A 6.909 6.909 0 0 1 132.465 21.525 Q 130.92 22.56 129.12 22.56 Q 127.74 22.56 126.54 22.005 A 9.106 9.106 0 0 1 125.515 21.453 Q 125.011 21.136 124.613 20.778 A 5.605 5.605 0 0 1 124.56 20.73 L 124.56 28.8 Z M 142.35 28.8 L 139.65 28.8 L 139.65 10.59 Q 139.65 9.988 139.477 9.589 A 1.261 1.261 0 0 0 139.155 9.135 A 1.716 1.716 0 0 0 138.318 8.738 A 2.397 2.397 0 0 0 137.88 8.7 L 138.45 6.6 A 5.257 5.257 0 0 1 139.718 6.741 Q 141.385 7.156 141.9 8.79 Q 142.2 8.34 142.875 7.74 A 5.671 5.671 0 0 1 143.685 7.145 A 7.671 7.671 0 0 1 144.555 6.69 A 5.086 5.086 0 0 1 145.923 6.303 A 6.566 6.566 0 0 1 146.85 6.24 Q 148.65 6.24 150.225 7.185 A 6.699 6.699 0 0 1 152.378 9.275 A 8.239 8.239 0 0 1 152.76 9.915 A 7.705 7.705 0 0 1 153.509 12.027 Q 153.7 12.958 153.718 14.027 A 13.282 13.282 0 0 1 153.72 14.25 A 10.971 10.971 0 0 1 153.509 16.449 A 8.432 8.432 0 0 1 152.76 18.615 A 8.354 8.354 0 0 1 151.58 20.365 A 6.909 6.909 0 0 1 150.255 21.525 Q 148.71 22.56 146.91 22.56 Q 145.53 22.56 144.33 22.005 A 9.106 9.106 0 0 1 143.305 21.453 Q 142.801 21.136 142.403 20.778 A 5.605 5.605 0 0 1 142.35 20.73 L 142.35 28.8 Z M 45.18 20.91 L 45.18 22.2 L 42.66 22.2 L 42.66 0 L 45.36 0 L 45.36 8.22 A 4.653 4.653 0 0 1 45.926 7.677 Q 46.231 7.428 46.612 7.184 A 9.994 9.994 0 0 1 47.115 6.885 A 4.975 4.975 0 0 1 48.684 6.338 A 6.727 6.727 0 0 1 49.86 6.24 Q 51.66 6.24 53.235 7.185 A 6.699 6.699 0 0 1 55.388 9.275 A 8.239 8.239 0 0 1 55.77 9.915 A 7.705 7.705 0 0 1 56.519 12.027 Q 56.71 12.958 56.728 14.027 A 13.282 13.282 0 0 1 56.73 14.25 A 9.995 9.995 0 0 1 56.524 16.316 A 8.325 8.325 0 0 1 56.13 17.64 A 8.81 8.81 0 0 1 55.182 19.441 A 7.645 7.645 0 0 1 54.525 20.265 A 7.468 7.468 0 0 1 52.686 21.739 A 6.991 6.991 0 0 1 52.26 21.96 A 6.002 6.002 0 0 1 50.05 22.548 A 5.763 5.763 0 0 1 49.68 22.56 Q 48.33 22.56 47.145 22.065 A 9.082 9.082 0 0 1 46.154 21.583 Q 45.607 21.271 45.18 20.91 Z M 90.54 15.51 L 79.62 15.51 A 7.226 7.226 0 0 0 79.962 17.018 Q 80.363 18.161 81.15 18.93 A 4.243 4.243 0 0 0 83.437 20.073 A 6.006 6.006 0 0 0 84.48 20.16 A 11.019 11.019 0 0 0 85.762 20.089 A 8.273 8.273 0 0 0 86.91 19.875 Q 87.99 19.59 88.98 19.14 L 89.61 21.45 A 12.231 12.231 0 0 1 88.31 21.938 A 15.559 15.559 0 0 1 87.18 22.245 A 11.674 11.674 0 0 1 85.652 22.491 A 15.608 15.608 0 0 1 84.15 22.56 A 8.495 8.495 0 0 1 81.826 22.258 A 6.332 6.332 0 0 1 78.825 20.415 A 7.056 7.056 0 0 1 77.263 17.553 Q 76.86 16.154 76.86 14.4 A 10.608 10.608 0 0 1 77.11 12.053 A 8.652 8.652 0 0 1 77.745 10.215 A 7.393 7.393 0 0 1 79.25 8.09 A 6.866 6.866 0 0 1 80.22 7.305 Q 81.81 6.24 83.91 6.24 A 8.566 8.566 0 0 1 85.551 6.389 Q 86.554 6.585 87.355 7.038 A 5.164 5.164 0 0 1 87.645 7.215 Q 89.13 8.19 89.88 9.84 A 8.456 8.456 0 0 1 90.608 12.799 A 10.03 10.03 0 0 1 90.63 13.47 A 22.561 22.561 0 0 1 90.543 15.479 A 20.779 20.779 0 0 1 90.54 15.51 Z M 113.91 7.86 L 113.91 6.6 L 116.37 6.6 L 116.37 18.42 A 3.645 3.645 0 0 0 116.4 18.911 Q 116.477 19.475 116.749 19.761 A 0.89 0.89 0 0 0 116.925 19.905 Q 117.48 20.25 118.14 20.25 L 117.57 22.35 Q 114.761 22.35 114.121 20.124 A 4.076 4.076 0 0 1 114.09 20.01 A 6.392 6.392 0 0 1 113.157 21.038 A 8.549 8.549 0 0 1 112.215 21.765 A 4.478 4.478 0 0 1 110.729 22.396 Q 110.124 22.538 109.418 22.557 A 8.162 8.162 0 0 1 109.2 22.56 Q 107.25 22.56 105.66 21.57 A 6.884 6.884 0 0 1 103.436 19.312 A 8.377 8.377 0 0 1 103.125 18.765 A 8.168 8.168 0 0 1 102.336 16.382 A 10.993 10.993 0 0 1 102.18 14.49 A 9.943 9.943 0 0 1 102.479 12.009 A 8.39 8.39 0 0 1 103.125 10.29 Q 104.07 8.43 105.735 7.335 A 6.689 6.689 0 0 1 109.093 6.253 A 8.216 8.216 0 0 1 109.56 6.24 A 6.775 6.775 0 0 1 110.998 6.387 A 5.611 5.611 0 0 1 112.005 6.705 A 7.801 7.801 0 0 1 113.291 7.393 A 6.631 6.631 0 0 1 113.91 7.86 Z M 67.83 17.31 L 67.83 0 L 70.53 0 L 70.53 17.04 Q 70.53 18.012 70.773 18.682 A 2.392 2.392 0 0 0 71.205 19.44 A 2.209 2.209 0 0 0 72.58 20.183 A 3.217 3.217 0 0 0 73.08 20.22 Q 73.65 20.22 74.205 20.085 A 6.658 6.658 0 0 0 74.644 19.963 Q 74.925 19.874 75.15 19.77 L 75.81 21.96 A 5.445 5.445 0 0 1 75.329 22.145 Q 74.947 22.273 74.475 22.38 A 7.145 7.145 0 0 1 73.528 22.526 A 9.154 9.154 0 0 1 72.72 22.56 A 6.259 6.259 0 0 1 71.253 22.394 A 5.263 5.263 0 0 1 70.23 22.035 A 3.805 3.805 0 0 1 68.633 20.605 A 4.757 4.757 0 0 1 68.475 20.34 Q 67.83 19.17 67.83 17.31 Z M 28.698 22.158 A 8.164 8.164 0 0 0 31.29 22.56 A 9.218 9.218 0 0 0 31.972 22.535 A 7.577 7.577 0 0 0 35.265 21.54 Q 37.02 20.52 38.04 18.675 A 7.877 7.877 0 0 0 38.836 16.533 A 10.255 10.255 0 0 0 39.06 14.34 A 10.363 10.363 0 0 0 38.914 12.567 A 7.738 7.738 0 0 0 38.025 10.035 Q 36.99 8.22 35.235 7.23 A 7.455 7.455 0 0 0 33.843 6.622 A 8.321 8.321 0 0 0 31.29 6.24 A 9.398 9.398 0 0 0 30.816 6.252 A 7.851 7.851 0 0 0 27.33 7.23 Q 25.56 8.22 24.54 10.05 Q 23.52 11.88 23.52 14.4 Q 23.52 16.8 24.525 18.645 Q 25.53 20.49 27.3 21.525 A 7.368 7.368 0 0 0 28.698 22.158 Z M 63.18 22.2 L 60.48 22.2 L 60.48 6.6 L 63.18 6.6 L 63.18 22.2 Z M 31.29 20.16 A 5.622 5.622 0 0 0 32.858 19.953 A 4.2 4.2 0 0 0 34.98 18.555 A 5.641 5.641 0 0 0 36.126 16.128 A 8.131 8.131 0 0 0 36.3 14.4 A 6.413 6.413 0 0 0 35.933 12.214 A 6.004 6.004 0 0 0 35.64 11.535 A 5.759 5.759 0 0 0 34.388 9.864 A 5.451 5.451 0 0 0 33.855 9.435 Q 32.73 8.64 31.29 8.64 A 5.775 5.775 0 0 0 29.722 8.841 A 4.211 4.211 0 0 0 27.6 10.2 A 5.363 5.363 0 0 0 26.498 12.412 Q 26.3 13.209 26.282 14.145 A 9.86 9.86 0 0 0 26.28 14.34 Q 26.28 15.9 26.94 17.235 A 5.831 5.831 0 0 0 27.999 18.747 A 5.288 5.288 0 0 0 28.725 19.365 Q 29.85 20.16 31.29 20.16 Z M 113.67 18.21 L 113.67 9.84 Q 112.86 9.27 111.885 8.925 Q 110.91 8.58 109.83 8.58 A 4.777 4.777 0 0 0 108.339 8.806 A 4.207 4.207 0 0 0 107.295 9.315 Q 106.2 10.05 105.57 11.355 Q 104.94 12.66 104.94 14.4 Q 104.94 16.08 105.57 17.385 A 5.281 5.281 0 0 0 106.502 18.749 A 4.709 4.709 0 0 0 107.31 19.425 Q 108.42 20.16 109.8 20.16 Q 110.94 20.16 111.96 19.605 Q 112.98 19.05 113.67 18.21 Z M 45.36 10.62 L 45.36 18.96 A 5.397 5.397 0 0 0 46.449 19.616 A 6.541 6.541 0 0 0 46.98 19.83 A 5.839 5.839 0 0 0 48.829 20.159 A 6.611 6.611 0 0 0 48.96 20.16 A 5.097 5.097 0 0 0 50.465 19.945 A 4.424 4.424 0 0 0 51.555 19.44 A 4.785 4.785 0 0 0 53.1 17.817 A 5.894 5.894 0 0 0 53.325 17.4 A 6.26 6.26 0 0 0 53.879 15.586 A 8.243 8.243 0 0 0 53.97 14.34 Q 53.97 12.604 53.37 11.343 A 5.202 5.202 0 0 0 53.325 11.25 Q 52.68 9.96 51.615 9.27 Q 50.55 8.58 49.26 8.58 A 4.422 4.422 0 0 0 47.572 8.899 A 4.216 4.216 0 0 0 46.935 9.225 Q 45.9 9.87 45.36 10.62 Z M 124.56 10.62 L 124.56 18.3 Q 125.34 19.11 126.36 19.635 Q 127.38 20.16 128.58 20.16 A 4.187 4.187 0 0 0 130.429 19.759 Q 131.232 19.37 131.855 18.605 A 5.213 5.213 0 0 0 131.895 18.555 A 5.638 5.638 0 0 0 132.943 16.363 Q 133.142 15.556 133.166 14.612 A 10.366 10.366 0 0 0 133.17 14.34 Q 133.17 12.604 132.57 11.343 A 5.202 5.202 0 0 0 132.525 11.25 Q 131.88 9.96 130.815 9.27 Q 129.75 8.58 128.46 8.58 A 4.422 4.422 0 0 0 126.772 8.899 A 4.216 4.216 0 0 0 126.135 9.225 Q 125.1 9.87 124.56 10.62 Z M 142.35 10.62 L 142.35 18.3 Q 143.13 19.11 144.15 19.635 Q 145.17 20.16 146.37 20.16 A 4.187 4.187 0 0 0 148.219 19.759 Q 149.022 19.37 149.645 18.605 A 5.213 5.213 0 0 0 149.685 18.555 A 5.638 5.638 0 0 0 150.733 16.363 Q 150.932 15.556 150.956 14.612 A 10.366 10.366 0 0 0 150.96 14.34 Q 150.96 12.604 150.36 11.343 A 5.202 5.202 0 0 0 150.315 11.25 Q 149.67 9.96 148.605 9.27 Q 147.54 8.58 146.25 8.58 A 4.422 4.422 0 0 0 144.562 8.899 A 4.216 4.216 0 0 0 143.925 9.225 Q 142.89 9.87 142.35 10.62 Z M 79.59 13.32 L 88.14 13.32 A 7.307 7.307 0 0 0 88.019 11.944 Q 87.87 11.169 87.539 10.562 A 3.727 3.727 0 0 0 87 9.81 A 3.747 3.747 0 0 0 84.912 8.677 A 5.519 5.519 0 0 0 83.85 8.58 Q 82.11 8.58 80.97 9.795 Q 79.83 11.01 79.59 13.32 Z M 60.521 3.386 A 1.792 1.792 0 0 0 61.83 3.93 A 2.453 2.453 0 0 0 62.279 3.891 A 1.694 1.694 0 0 0 63.21 3.405 A 1.733 1.733 0 0 0 63.637 2.665 A 2.253 2.253 0 0 0 63.72 2.04 A 2.176 2.176 0 0 0 63.72 2.016 A 1.818 1.818 0 0 0 63.165 0.705 Q 62.61 0.15 61.83 0.15 Q 60.96 0.15 60.45 0.66 Q 59.94 1.17 59.94 2.04 A 1.797 1.797 0 0 0 60.088 2.766 A 1.993 1.993 0 0 0 60.495 3.36 A 2.242 2.242 0 0 0 60.521 3.386 Z" vector-effect="non-scaling-stroke"/></g></svg>