<svg width="159.09" height="29.16" viewBox="0 0 159.09 29.16" xmlns="http://www.w3.org/2000/svg"><g id="svgGroup" stroke-linecap="round" fill-rule="evenodd" font-size="9pt" stroke="#c4b7b7" stroke-width="0.50mm" fill="#bab3b3" style="stroke:#c4b7b7;stroke-width:0.50mm;fill:#bab3b3"><path d="M 9.24 22.2 L 5.7 22.2 L 0 1.89 L 2.82 0.99 L 7.56 19.17 L 12.03 3.39 L 15.6 3.39 L 20.04 19.17 L 24.75 1.08 L 27.39 1.89 L 21.72 22.2 L 18.18 22.2 L 13.74 6.42 L 9.24 22.2 Z M 129.15 27.84 L 130.14 25.5 A 6.168 6.168 0 0 0 131.285 26.212 A 7.421 7.421 0 0 0 131.82 26.445 A 5.071 5.071 0 0 0 132.776 26.708 Q 133.247 26.792 133.788 26.813 A 9.536 9.536 0 0 0 134.16 26.82 A 6.51 6.51 0 0 0 135.516 26.687 Q 136.708 26.433 137.505 25.695 A 3.406 3.406 0 0 0 138.377 24.347 Q 138.72 23.417 138.72 22.11 L 138.72 20.19 A 4.739 4.739 0 0 1 138.12 20.784 Q 137.798 21.055 137.394 21.314 A 9.422 9.422 0 0 1 136.995 21.555 A 4.772 4.772 0 0 1 135.441 22.105 A 6.477 6.477 0 0 1 134.31 22.2 Q 132.54 22.2 130.95 21.285 A 6.671 6.671 0 0 1 128.762 19.234 A 8.231 8.231 0 0 1 128.37 18.6 A 7.554 7.554 0 0 1 127.556 16.313 A 10.51 10.51 0 0 1 127.38 14.34 A 9.618 9.618 0 0 1 127.655 11.998 A 8.005 8.005 0 0 1 128.355 10.17 A 7.712 7.712 0 0 1 130.174 7.883 A 7.334 7.334 0 0 1 130.98 7.29 Q 132.63 6.24 134.61 6.24 A 6.71 6.71 0 0 1 136.056 6.39 A 5.614 5.614 0 0 1 137.01 6.69 Q 138.09 7.14 138.87 7.8 L 138.87 6.6 L 141.33 6.6 L 141.33 21.84 A 12.208 12.208 0 0 1 141.224 23.5 Q 141.103 24.377 140.846 25.108 A 6.049 6.049 0 0 1 140.43 26.04 Q 139.53 27.66 137.925 28.41 A 7.743 7.743 0 0 1 135.944 29.016 A 10.573 10.573 0 0 1 134.16 29.16 Q 132.78 29.16 131.475 28.83 A 8.169 8.169 0 0 1 129.885 28.255 A 7.055 7.055 0 0 1 129.15 27.84 Z M 148.68 22.2 L 145.98 22.2 L 145.98 6.6 L 148.59 6.6 L 148.59 9.21 Q 149.43 7.95 150.735 7.095 A 5.195 5.195 0 0 1 152.867 6.308 A 6.789 6.789 0 0 1 153.84 6.24 Q 155.856 6.24 157.094 7.167 A 3.978 3.978 0 0 1 157.785 7.83 A 5.521 5.521 0 0 1 158.866 10.043 Q 159.062 10.836 159.087 11.763 A 10.129 10.129 0 0 1 159.09 12.03 L 159.09 22.2 L 156.39 22.2 L 156.39 12.33 A 5.779 5.779 0 0 0 156.287 11.208 Q 156.156 10.543 155.856 10.019 A 3.29 3.29 0 0 0 155.595 9.63 A 2.574 2.574 0 0 0 153.712 8.624 A 3.618 3.618 0 0 0 153.39 8.61 A 3.937 3.937 0 0 0 151.335 9.199 A 5.206 5.206 0 0 0 150.78 9.585 Q 149.55 10.56 148.68 11.88 L 148.68 22.2 Z M 105.54 20.94 L 106.68 18.69 Q 107.46 19.35 108.645 19.785 A 7.222 7.222 0 0 0 110.928 20.216 A 8.239 8.239 0 0 0 111.18 20.22 A 8.134 8.134 0 0 0 112.105 20.171 Q 113.061 20.061 113.65 19.705 A 2.321 2.321 0 0 0 113.715 19.665 A 2.235 2.235 0 0 0 114.175 19.277 A 1.516 1.516 0 0 0 114.57 18.24 A 2.137 2.137 0 0 0 114.476 17.596 A 1.864 1.864 0 0 0 114.255 17.13 Q 113.94 16.65 113.1 16.185 Q 112.341 15.765 110.97 15.284 A 31.082 31.082 0 0 0 110.67 15.18 A 13.985 13.985 0 0 1 109.351 14.657 Q 108.121 14.09 107.385 13.395 A 3.397 3.397 0 0 1 106.397 11.596 A 5.038 5.038 0 0 1 106.29 10.53 A 3.636 3.636 0 0 1 107.474 7.825 A 5.239 5.239 0 0 1 107.865 7.485 A 5.33 5.33 0 0 1 109.676 6.571 Q 110.443 6.343 111.362 6.272 A 11.258 11.258 0 0 1 112.23 6.24 A 12.238 12.238 0 0 1 113.564 6.309 Q 114.278 6.388 114.9 6.555 A 11.631 11.631 0 0 1 116.14 6.962 A 9.333 9.333 0 0 1 117 7.35 L 116.25 9.57 A 7.358 7.358 0 0 0 115.15 9.04 A 9.058 9.058 0 0 0 114.405 8.79 A 7.507 7.507 0 0 0 113.06 8.536 A 9.551 9.551 0 0 0 112.11 8.49 A 6.19 6.19 0 0 0 111.229 8.548 Q 110.303 8.682 109.74 9.12 Q 109.202 9.538 109.021 10.01 A 1.359 1.359 0 0 0 108.93 10.5 A 1.476 1.476 0 0 0 109.379 11.565 A 2.125 2.125 0 0 0 109.56 11.73 Q 110.18 12.232 111.96 12.82 A 25.298 25.298 0 0 0 112.02 12.84 Q 114.588 13.696 115.81 14.709 A 4.484 4.484 0 0 1 116.16 15.03 A 4.079 4.079 0 0 1 117.325 17.804 A 5.369 5.369 0 0 1 117.33 18.03 A 4.162 4.162 0 0 1 117.011 19.685 Q 116.621 20.595 115.755 21.256 A 4.986 4.986 0 0 1 115.635 21.345 Q 114.213 22.364 111.978 22.528 A 12.127 12.127 0 0 1 111.09 22.56 A 11.997 11.997 0 0 1 109.332 22.437 A 9.284 9.284 0 0 1 107.895 22.11 A 9.265 9.265 0 0 1 106.743 21.665 Q 106.149 21.385 105.674 21.041 A 5.468 5.468 0 0 1 105.54 20.94 Z M 82.8 8.16 L 82.8 0 L 85.5 0 L 85.5 18.42 A 3.645 3.645 0 0 0 85.53 18.911 Q 85.607 19.475 85.879 19.761 A 0.89 0.89 0 0 0 86.055 19.905 Q 86.61 20.25 87.27 20.25 L 86.7 22.35 Q 83.885 22.35 83.236 20.126 A 4.022 4.022 0 0 1 83.22 20.07 A 5.846 5.846 0 0 1 82.371 21.015 Q 81.945 21.402 81.41 21.757 A 9.689 9.689 0 0 1 81.375 21.78 Q 80.19 22.56 78.39 22.56 Q 76.47 22.56 74.88 21.57 A 6.808 6.808 0 0 1 72.619 19.233 A 8.287 8.287 0 0 1 72.36 18.765 A 8.26 8.26 0 0 1 71.583 16.382 A 11.166 11.166 0 0 1 71.43 14.49 A 10.182 10.182 0 0 1 71.697 12.116 A 8.389 8.389 0 0 1 72.375 10.26 Q 73.32 8.4 74.895 7.32 Q 76.47 6.24 78.36 6.24 A 6.493 6.493 0 0 1 79.642 6.361 A 4.783 4.783 0 0 1 81.045 6.87 A 10.303 10.303 0 0 1 81.819 7.347 Q 82.186 7.597 82.477 7.852 A 4.977 4.977 0 0 1 82.8 8.16 Z M 48.18 20.91 L 48.18 22.2 L 45.66 22.2 L 45.66 0 L 48.36 0 L 48.36 8.22 A 4.653 4.653 0 0 1 48.926 7.677 Q 49.231 7.428 49.612 7.184 A 9.994 9.994 0 0 1 50.115 6.885 A 4.975 4.975 0 0 1 51.684 6.338 A 6.727 6.727 0 0 1 52.86 6.24 Q 54.66 6.24 56.235 7.185 A 6.699 6.699 0 0 1 58.388 9.275 A 8.239 8.239 0 0 1 58.77 9.915 A 7.705 7.705 0 0 1 59.519 12.027 Q 59.71 12.958 59.728 14.027 A 13.282 13.282 0 0 1 59.73 14.25 A 9.995 9.995 0 0 1 59.524 16.316 A 8.325 8.325 0 0 1 59.13 17.64 A 8.81 8.81 0 0 1 58.182 19.441 A 7.645 7.645 0 0 1 57.525 20.265 A 7.468 7.468 0 0 1 55.686 21.739 A 6.991 6.991 0 0 1 55.26 21.96 A 6.002 6.002 0 0 1 53.05 22.548 A 5.763 5.763 0 0 1 52.68 22.56 Q 51.33 22.56 50.145 22.065 A 9.082 9.082 0 0 1 49.154 21.583 Q 48.607 21.271 48.18 20.91 Z M 41.97 15.51 L 31.05 15.51 A 7.226 7.226 0 0 0 31.392 17.018 Q 31.793 18.161 32.58 18.93 A 4.243 4.243 0 0 0 34.867 20.073 A 6.006 6.006 0 0 0 35.91 20.16 A 11.019 11.019 0 0 0 37.192 20.089 A 8.273 8.273 0 0 0 38.34 19.875 Q 39.42 19.59 40.41 19.14 L 41.04 21.45 A 12.231 12.231 0 0 1 39.74 21.938 A 15.559 15.559 0 0 1 38.61 22.245 A 11.674 11.674 0 0 1 37.082 22.491 A 15.608 15.608 0 0 1 35.58 22.56 A 8.495 8.495 0 0 1 33.256 22.258 A 6.332 6.332 0 0 1 30.255 20.415 A 7.056 7.056 0 0 1 28.693 17.553 Q 28.29 16.154 28.29 14.4 A 10.608 10.608 0 0 1 28.54 12.053 A 8.652 8.652 0 0 1 29.175 10.215 A 7.393 7.393 0 0 1 30.68 8.09 A 6.866 6.866 0 0 1 31.65 7.305 Q 33.24 6.24 35.34 6.24 A 8.566 8.566 0 0 1 36.981 6.389 Q 37.984 6.585 38.785 7.038 A 5.164 5.164 0 0 1 39.075 7.215 Q 40.56 8.19 41.31 9.84 A 8.456 8.456 0 0 1 42.038 12.799 A 10.03 10.03 0 0 1 42.06 13.47 A 22.561 22.561 0 0 1 41.973 15.479 A 20.779 20.779 0 0 1 41.97 15.51 Z M 103.2 15.51 L 92.28 15.51 A 7.226 7.226 0 0 0 92.622 17.018 Q 93.023 18.161 93.81 18.93 A 4.243 4.243 0 0 0 96.097 20.073 A 6.006 6.006 0 0 0 97.14 20.16 A 11.019 11.019 0 0 0 98.422 20.089 A 8.273 8.273 0 0 0 99.57 19.875 Q 100.65 19.59 101.64 19.14 L 102.27 21.45 A 12.231 12.231 0 0 1 100.97 21.938 A 15.559 15.559 0 0 1 99.84 22.245 A 11.674 11.674 0 0 1 98.312 22.491 A 15.608 15.608 0 0 1 96.81 22.56 A 8.495 8.495 0 0 1 94.486 22.258 A 6.332 6.332 0 0 1 91.485 20.415 A 7.056 7.056 0 0 1 89.923 17.553 Q 89.52 16.154 89.52 14.4 A 10.608 10.608 0 0 1 89.77 12.053 A 8.652 8.652 0 0 1 90.405 10.215 A 7.393 7.393 0 0 1 91.91 8.09 A 6.866 6.866 0 0 1 92.88 7.305 Q 94.47 6.24 96.57 6.24 A 8.566 8.566 0 0 1 98.211 6.389 Q 99.214 6.585 100.015 7.038 A 5.164 5.164 0 0 1 100.305 7.215 Q 101.79 8.19 102.54 9.84 A 8.456 8.456 0 0 1 103.268 12.799 A 10.03 10.03 0 0 1 103.29 13.47 A 22.561 22.561 0 0 1 103.203 15.479 A 20.779 20.779 0 0 1 103.2 15.51 Z M 123.63 22.2 L 120.93 22.2 L 120.93 6.6 L 123.63 6.6 L 123.63 22.2 Z M 48.36 10.62 L 48.36 18.96 A 5.397 5.397 0 0 0 49.449 19.616 A 6.541 6.541 0 0 0 49.98 19.83 A 5.839 5.839 0 0 0 51.829 20.159 A 6.611 6.611 0 0 0 51.96 20.16 A 5.097 5.097 0 0 0 53.465 19.945 A 4.424 4.424 0 0 0 54.555 19.44 A 4.785 4.785 0 0 0 56.1 17.817 A 5.894 5.894 0 0 0 56.325 17.4 A 6.26 6.26 0 0 0 56.879 15.586 A 8.243 8.243 0 0 0 56.97 14.34 Q 56.97 12.604 56.37 11.343 A 5.202 5.202 0 0 0 56.325 11.25 Q 55.68 9.96 54.615 9.27 Q 53.55 8.58 52.26 8.58 A 4.422 4.422 0 0 0 50.572 8.899 A 4.216 4.216 0 0 0 49.935 9.225 Q 48.9 9.87 48.36 10.62 Z M 82.8 18.27 L 82.8 10.53 Q 82.287 9.882 81.411 9.32 A 8.442 8.442 0 0 0 81.21 9.195 Q 80.19 8.58 78.96 8.58 Q 77.52 8.58 76.44 9.36 A 5.007 5.007 0 0 0 74.889 11.205 A 5.977 5.977 0 0 0 74.775 11.445 A 6.657 6.657 0 0 0 74.253 13.354 A 8.434 8.434 0 0 0 74.19 14.4 A 7.427 7.427 0 0 0 74.368 16.056 A 6.098 6.098 0 0 0 74.82 17.355 A 5.461 5.461 0 0 0 75.732 18.709 A 4.837 4.837 0 0 0 76.545 19.41 A 4.229 4.229 0 0 0 78.99 20.16 Q 80.1 20.16 81.105 19.635 Q 82.11 19.11 82.8 18.27 Z M 138.63 18 L 138.63 9.84 Q 137.98 9.368 137.069 8.982 A 10.786 10.786 0 0 0 137.04 8.97 A 4.875 4.875 0 0 0 135.899 8.655 A 6.64 6.64 0 0 0 134.88 8.58 Q 133.65 8.58 132.57 9.24 A 4.72 4.72 0 0 0 131.13 10.628 A 5.885 5.885 0 0 0 130.815 11.145 A 5.34 5.34 0 0 0 130.288 12.624 Q 130.14 13.346 130.14 14.19 A 7.296 7.296 0 0 0 130.283 15.671 A 5.493 5.493 0 0 0 130.815 17.16 A 5.573 5.573 0 0 0 131.688 18.382 A 4.741 4.741 0 0 0 132.57 19.11 Q 133.65 19.8 134.91 19.8 A 4.583 4.583 0 0 0 136.283 19.599 A 4.082 4.082 0 0 0 137.07 19.26 A 6.256 6.256 0 0 0 137.964 18.655 A 4.893 4.893 0 0 0 138.63 18 Z M 31.02 13.32 L 39.57 13.32 A 7.307 7.307 0 0 0 39.449 11.944 Q 39.3 11.169 38.969 10.562 A 3.727 3.727 0 0 0 38.43 9.81 A 3.747 3.747 0 0 0 36.342 8.677 A 5.519 5.519 0 0 0 35.28 8.58 Q 33.54 8.58 32.4 9.795 Q 31.26 11.01 31.02 13.32 Z M 92.25 13.32 L 100.8 13.32 A 7.307 7.307 0 0 0 100.679 11.944 Q 100.53 11.169 100.199 10.562 A 3.727 3.727 0 0 0 99.66 9.81 A 3.747 3.747 0 0 0 97.572 8.677 A 5.519 5.519 0 0 0 96.51 8.58 Q 94.77 8.58 93.63 9.795 Q 92.49 11.01 92.25 13.32 Z M 120.971 3.386 A 1.792 1.792 0 0 0 122.28 3.93 A 2.453 2.453 0 0 0 122.729 3.891 A 1.694 1.694 0 0 0 123.66 3.405 A 1.733 1.733 0 0 0 124.087 2.665 A 2.253 2.253 0 0 0 124.17 2.04 A 2.176 2.176 0 0 0 124.17 2.016 A 1.818 1.818 0 0 0 123.615 0.705 Q 123.06 0.15 122.28 0.15 Q 121.41 0.15 120.9 0.66 Q 120.39 1.17 120.39 2.04 A 1.797 1.797 0 0 0 120.538 2.766 A 1.993 1.993 0 0 0 120.945 3.36 A 2.242 2.242 0 0 0 120.971 3.386 Z" vector-effect="non-scaling-stroke"/></g></svg>