<svg width="180.6" height="22.56" viewBox="0 0 180.6 22.56" xmlns="http://www.w3.org/2000/svg"><g id="svgGroup" stroke-linecap="round" fill-rule="evenodd" font-size="9pt" stroke="#c4b7b7" stroke-width="0.50mm" fill="#bab3b3" style="stroke:#c4b7b7;stroke-width:0.50mm;fill:#bab3b3"><path d="M 98.73 22.2 L 96.03 22.2 L 96.03 6.6 L 98.64 6.6 L 98.64 9.21 Q 99.48 7.95 100.77 7.095 Q 102.06 6.24 103.71 6.24 A 6.298 6.298 0 0 1 105.035 6.372 Q 105.931 6.565 106.616 7.039 A 3.938 3.938 0 0 1 106.755 7.14 Q 107.94 8.04 108.42 9.54 Q 109.35 8.16 110.625 7.2 A 4.701 4.701 0 0 1 112.662 6.335 A 6.434 6.434 0 0 1 113.79 6.24 A 6.431 6.431 0 0 1 115.256 6.397 Q 116.729 6.742 117.585 7.845 Q 118.83 9.45 118.83 12.03 L 118.83 22.2 L 116.13 22.2 L 116.13 12.24 Q 116.13 10.876 115.599 9.948 A 3.295 3.295 0 0 0 115.38 9.615 A 2.392 2.392 0 0 0 113.636 8.626 A 3.203 3.203 0 0 0 113.31 8.61 Q 111.96 8.61 110.805 9.615 Q 109.65 10.62 108.78 11.97 L 108.78 22.2 L 106.08 22.2 L 106.08 12.24 Q 106.08 10.876 105.549 9.948 A 3.295 3.295 0 0 0 105.33 9.615 A 2.392 2.392 0 0 0 103.586 8.626 A 3.203 3.203 0 0 0 103.26 8.61 A 3.606 3.606 0 0 0 101.364 9.158 A 4.873 4.873 0 0 0 100.77 9.585 Q 99.6 10.56 98.73 11.88 L 98.73 22.2 Z M 0 20.43 L 1.44 18.03 Q 2.52 18.93 3.87 19.5 A 7.005 7.005 0 0 0 5.481 19.953 A 9.635 9.635 0 0 0 7.02 20.07 A 8.394 8.394 0 0 0 8.384 19.966 Q 9.608 19.764 10.44 19.17 A 3.084 3.084 0 0 0 11.279 18.298 Q 11.674 17.667 11.698 16.85 A 3.634 3.634 0 0 0 11.7 16.74 A 3.582 3.582 0 0 0 11.599 15.872 A 2.945 2.945 0 0 0 11.34 15.195 Q 10.982 14.523 9.955 13.881 A 7.652 7.652 0 0 0 9.945 13.875 A 9.631 9.631 0 0 0 9.203 13.462 Q 8.411 13.061 7.28 12.624 A 35.577 35.577 0 0 0 6.9 12.48 A 27.124 27.124 0 0 1 5.518 11.901 Q 4.84 11.593 4.278 11.283 A 11.849 11.849 0 0 1 3.45 10.785 A 6.579 6.579 0 0 1 2.523 10.051 Q 2.008 9.556 1.691 8.996 A 3.991 3.991 0 0 1 1.605 8.835 A 5 5 0 0 1 1.149 7.434 A 6.878 6.878 0 0 1 1.05 6.24 Q 1.05 4.74 1.875 3.525 A 5.153 5.153 0 0 1 3.211 2.194 A 7.016 7.016 0 0 1 4.305 1.575 A 7.667 7.667 0 0 1 6.075 1.024 Q 6.865 0.875 7.768 0.846 A 13.568 13.568 0 0 1 8.19 0.84 A 15.869 15.869 0 0 1 9.956 0.934 A 11.831 11.831 0 0 1 11.535 1.215 Q 13.02 1.59 14.43 2.28 L 13.38 4.71 A 9.449 9.449 0 0 0 12.142 4.104 A 12.506 12.506 0 0 0 10.995 3.705 A 10.02 10.02 0 0 0 8.13 3.3 A 8.156 8.156 0 0 0 6.921 3.384 Q 5.776 3.556 5.01 4.08 A 2.97 2.97 0 0 0 4.361 4.669 A 2.208 2.208 0 0 0 3.87 6.09 Q 3.87 6.87 4.2 7.47 A 2.073 2.073 0 0 0 4.52 7.897 Q 4.858 8.251 5.427 8.594 A 7.05 7.05 0 0 0 5.505 8.64 A 9.901 9.901 0 0 0 6.17 8.992 Q 6.851 9.322 7.814 9.697 A 39.004 39.004 0 0 0 8.43 9.93 Q 10.77 10.8 12.135 11.76 Q 13.5 12.72 14.07 13.845 A 5.274 5.274 0 0 1 14.592 15.604 A 6.647 6.647 0 0 1 14.64 16.41 A 6.513 6.513 0 0 1 14.44 18.06 A 5.131 5.131 0 0 1 13.665 19.74 A 5.885 5.885 0 0 1 11.586 21.547 A 7.307 7.307 0 0 1 10.965 21.84 A 9.156 9.156 0 0 1 8.742 22.441 A 12.008 12.008 0 0 1 7.02 22.56 A 14.21 14.21 0 0 1 4.687 22.376 A 11.415 11.415 0 0 1 3.03 21.975 A 11.462 11.462 0 0 1 1.42 21.32 A 8.53 8.53 0 0 1 0 20.43 Z M 150.12 8.16 L 150.12 0 L 152.82 0 L 152.82 18.42 A 3.645 3.645 0 0 0 152.85 18.911 Q 152.927 19.475 153.199 19.761 A 0.89 0.89 0 0 0 153.375 19.905 Q 153.93 20.25 154.59 20.25 L 154.02 22.35 Q 151.205 22.35 150.556 20.126 A 4.022 4.022 0 0 1 150.54 20.07 A 5.846 5.846 0 0 1 149.691 21.015 Q 149.265 21.402 148.73 21.757 A 9.689 9.689 0 0 1 148.695 21.78 Q 147.51 22.56 145.71 22.56 Q 143.79 22.56 142.2 21.57 A 6.808 6.808 0 0 1 139.939 19.233 A 8.287 8.287 0 0 1 139.68 18.765 A 8.26 8.26 0 0 1 138.903 16.382 A 11.166 11.166 0 0 1 138.75 14.49 A 10.182 10.182 0 0 1 139.017 12.116 A 8.389 8.389 0 0 1 139.695 10.26 Q 140.64 8.4 142.215 7.32 Q 143.79 6.24 145.68 6.24 A 6.493 6.493 0 0 1 146.962 6.361 A 4.783 4.783 0 0 1 148.365 6.87 A 10.303 10.303 0 0 1 149.139 7.347 Q 149.506 7.597 149.797 7.852 A 4.977 4.977 0 0 1 150.12 8.16 Z M 136.11 15.51 L 125.19 15.51 A 7.226 7.226 0 0 0 125.532 17.018 Q 125.933 18.161 126.72 18.93 A 4.243 4.243 0 0 0 129.007 20.073 A 6.006 6.006 0 0 0 130.05 20.16 A 11.019 11.019 0 0 0 131.332 20.089 A 8.273 8.273 0 0 0 132.48 19.875 Q 133.56 19.59 134.55 19.14 L 135.18 21.45 A 12.231 12.231 0 0 1 133.88 21.938 A 15.559 15.559 0 0 1 132.75 22.245 A 11.674 11.674 0 0 1 131.222 22.491 A 15.608 15.608 0 0 1 129.72 22.56 A 8.495 8.495 0 0 1 127.396 22.258 A 6.332 6.332 0 0 1 124.395 20.415 A 7.056 7.056 0 0 1 122.833 17.553 Q 122.43 16.154 122.43 14.4 A 10.608 10.608 0 0 1 122.68 12.053 A 8.652 8.652 0 0 1 123.315 10.215 A 7.393 7.393 0 0 1 124.82 8.09 A 6.866 6.866 0 0 1 125.79 7.305 Q 127.38 6.24 129.48 6.24 A 8.566 8.566 0 0 1 131.121 6.389 Q 132.124 6.585 132.925 7.038 A 5.164 5.164 0 0 1 133.215 7.215 Q 134.7 8.19 135.45 9.84 A 8.456 8.456 0 0 1 136.178 12.799 A 10.03 10.03 0 0 1 136.2 13.47 A 22.561 22.561 0 0 1 136.113 15.479 A 20.779 20.779 0 0 1 136.11 15.51 Z M 47.25 7.17 L 46.44 9.45 Q 45.6 9.03 44.835 8.835 A 6.163 6.163 0 0 0 43.922 8.677 A 7.906 7.906 0 0 0 43.14 8.64 A 4.767 4.767 0 0 0 40.964 9.133 A 4.84 4.84 0 0 0 39.615 10.155 Q 38.262 11.593 38.194 14.072 A 9.682 9.682 0 0 0 38.19 14.34 A 7.558 7.558 0 0 0 38.402 16.158 A 6.435 6.435 0 0 0 38.79 17.28 Q 39.39 18.6 40.455 19.38 A 4.039 4.039 0 0 0 42.606 20.148 A 5.072 5.072 0 0 0 42.96 20.16 A 8.526 8.526 0 0 0 43.832 20.118 Q 44.429 20.056 44.91 19.905 Q 45.72 19.65 46.65 19.17 L 47.49 21.45 A 8.561 8.561 0 0 1 46.105 22.052 A 10.287 10.287 0 0 1 45.405 22.26 Q 44.268 22.555 42.826 22.56 A 14.342 14.342 0 0 1 42.78 22.56 A 8.041 8.041 0 0 1 40.668 22.293 A 6.622 6.622 0 0 1 38.895 21.525 Q 37.23 20.49 36.33 18.645 Q 35.43 16.8 35.43 14.4 Q 35.43 12.15 36.345 10.29 Q 37.26 8.43 38.97 7.335 A 6.92 6.92 0 0 1 41.87 6.309 A 8.883 8.883 0 0 1 42.99 6.24 A 12.393 12.393 0 0 1 44.085 6.286 Q 44.646 6.336 45.136 6.44 A 7.191 7.191 0 0 1 45.315 6.48 Q 46.32 6.72 47.25 7.17 Z M 68.82 7.86 L 68.82 6.6 L 71.28 6.6 L 71.28 18.42 A 3.645 3.645 0 0 0 71.31 18.911 Q 71.387 19.475 71.659 19.761 A 0.89 0.89 0 0 0 71.835 19.905 Q 72.39 20.25 73.05 20.25 L 72.48 22.35 Q 69.671 22.35 69.031 20.124 A 4.076 4.076 0 0 1 69 20.01 A 6.392 6.392 0 0 1 68.067 21.038 A 8.549 8.549 0 0 1 67.125 21.765 A 4.478 4.478 0 0 1 65.639 22.396 Q 65.034 22.538 64.328 22.557 A 8.162 8.162 0 0 1 64.11 22.56 Q 62.16 22.56 60.57 21.57 A 6.884 6.884 0 0 1 58.346 19.312 A 8.377 8.377 0 0 1 58.035 18.765 A 8.168 8.168 0 0 1 57.246 16.382 A 10.993 10.993 0 0 1 57.09 14.49 A 9.943 9.943 0 0 1 57.389 12.009 A 8.39 8.39 0 0 1 58.035 10.29 Q 58.98 8.43 60.645 7.335 A 6.689 6.689 0 0 1 64.003 6.253 A 8.216 8.216 0 0 1 64.47 6.24 A 6.775 6.775 0 0 1 65.908 6.387 A 5.611 5.611 0 0 1 66.915 6.705 A 7.801 7.801 0 0 1 68.201 7.393 A 6.631 6.631 0 0 1 68.82 7.86 Z M 176.37 7.86 L 176.37 6.6 L 178.83 6.6 L 178.83 18.42 A 3.645 3.645 0 0 0 178.86 18.911 Q 178.937 19.475 179.209 19.761 A 0.89 0.89 0 0 0 179.385 19.905 Q 179.94 20.25 180.6 20.25 L 180.03 22.35 Q 177.221 22.35 176.581 20.124 A 4.076 4.076 0 0 1 176.55 20.01 A 6.392 6.392 0 0 1 175.617 21.038 A 8.549 8.549 0 0 1 174.675 21.765 A 4.478 4.478 0 0 1 173.189 22.396 Q 172.584 22.538 171.878 22.557 A 8.162 8.162 0 0 1 171.66 22.56 Q 169.71 22.56 168.12 21.57 A 6.884 6.884 0 0 1 165.896 19.312 A 8.377 8.377 0 0 1 165.585 18.765 A 8.168 8.168 0 0 1 164.796 16.382 A 10.993 10.993 0 0 1 164.64 14.49 A 9.943 9.943 0 0 1 164.939 12.009 A 8.39 8.39 0 0 1 165.585 10.29 Q 166.53 8.43 168.195 7.335 A 6.689 6.689 0 0 1 171.553 6.253 A 8.216 8.216 0 0 1 172.02 6.24 A 6.775 6.775 0 0 1 173.458 6.387 A 5.611 5.611 0 0 1 174.465 6.705 A 7.801 7.801 0 0 1 175.751 7.393 A 6.631 6.631 0 0 1 176.37 7.86 Z M 76.5 17.31 L 76.5 0 L 79.2 0 L 79.2 17.04 Q 79.2 18.012 79.443 18.682 A 2.392 2.392 0 0 0 79.875 19.44 A 2.209 2.209 0 0 0 81.25 20.183 A 3.217 3.217 0 0 0 81.75 20.22 Q 82.32 20.22 82.875 20.085 A 6.658 6.658 0 0 0 83.314 19.963 Q 83.595 19.874 83.82 19.77 L 84.48 21.96 A 5.445 5.445 0 0 1 83.999 22.145 Q 83.617 22.273 83.145 22.38 A 7.145 7.145 0 0 1 82.198 22.526 A 9.154 9.154 0 0 1 81.39 22.56 A 6.259 6.259 0 0 1 79.923 22.394 A 5.263 5.263 0 0 1 78.9 22.035 A 3.805 3.805 0 0 1 77.303 20.605 A 4.757 4.757 0 0 1 77.145 20.34 Q 76.5 19.17 76.5 17.31 Z M 22.518 22.158 A 8.164 8.164 0 0 0 25.11 22.56 A 9.218 9.218 0 0 0 25.792 22.535 A 7.577 7.577 0 0 0 29.085 21.54 Q 30.84 20.52 31.86 18.675 A 7.877 7.877 0 0 0 32.656 16.533 A 10.255 10.255 0 0 0 32.88 14.34 A 10.363 10.363 0 0 0 32.734 12.567 A 7.738 7.738 0 0 0 31.845 10.035 Q 30.81 8.22 29.055 7.23 A 7.455 7.455 0 0 0 27.663 6.622 A 8.321 8.321 0 0 0 25.11 6.24 A 9.398 9.398 0 0 0 24.636 6.252 A 7.851 7.851 0 0 0 21.15 7.23 Q 19.38 8.22 18.36 10.05 Q 17.34 11.88 17.34 14.4 Q 17.34 16.8 18.345 18.645 Q 19.35 20.49 21.12 21.525 A 7.368 7.368 0 0 0 22.518 22.158 Z M 53.34 22.2 L 50.64 22.2 L 50.64 6.6 L 53.34 6.6 L 53.34 22.2 Z M 160.89 22.2 L 158.19 22.2 L 158.19 6.6 L 160.89 6.6 L 160.89 22.2 Z M 25.11 20.16 A 5.622 5.622 0 0 0 26.678 19.953 A 4.2 4.2 0 0 0 28.8 18.555 A 5.641 5.641 0 0 0 29.946 16.128 A 8.131 8.131 0 0 0 30.12 14.4 A 6.413 6.413 0 0 0 29.753 12.214 A 6.004 6.004 0 0 0 29.46 11.535 A 5.759 5.759 0 0 0 28.208 9.864 A 5.451 5.451 0 0 0 27.675 9.435 Q 26.55 8.64 25.11 8.64 A 5.775 5.775 0 0 0 23.542 8.841 A 4.211 4.211 0 0 0 21.42 10.2 A 5.363 5.363 0 0 0 20.318 12.412 Q 20.12 13.209 20.102 14.145 A 9.86 9.86 0 0 0 20.1 14.34 Q 20.1 15.9 20.76 17.235 A 5.831 5.831 0 0 0 21.819 18.747 A 5.288 5.288 0 0 0 22.545 19.365 Q 23.67 20.16 25.11 20.16 Z M 68.58 18.21 L 68.58 9.84 Q 67.77 9.27 66.795 8.925 Q 65.82 8.58 64.74 8.58 A 4.777 4.777 0 0 0 63.249 8.806 A 4.207 4.207 0 0 0 62.205 9.315 Q 61.11 10.05 60.48 11.355 Q 59.85 12.66 59.85 14.4 Q 59.85 16.08 60.48 17.385 A 5.281 5.281 0 0 0 61.412 18.749 A 4.709 4.709 0 0 0 62.22 19.425 Q 63.33 20.16 64.71 20.16 Q 65.85 20.16 66.87 19.605 Q 67.89 19.05 68.58 18.21 Z M 176.13 18.21 L 176.13 9.84 Q 175.32 9.27 174.345 8.925 Q 173.37 8.58 172.29 8.58 A 4.777 4.777 0 0 0 170.799 8.806 A 4.207 4.207 0 0 0 169.755 9.315 Q 168.66 10.05 168.03 11.355 Q 167.4 12.66 167.4 14.4 Q 167.4 16.08 168.03 17.385 A 5.281 5.281 0 0 0 168.962 18.749 A 4.709 4.709 0 0 0 169.77 19.425 Q 170.88 20.16 172.26 20.16 Q 173.4 20.16 174.42 19.605 Q 175.44 19.05 176.13 18.21 Z M 150.12 18.27 L 150.12 10.53 Q 149.607 9.882 148.731 9.32 A 8.442 8.442 0 0 0 148.53 9.195 Q 147.51 8.58 146.28 8.58 Q 144.84 8.58 143.76 9.36 A 5.007 5.007 0 0 0 142.209 11.205 A 5.977 5.977 0 0 0 142.095 11.445 A 6.657 6.657 0 0 0 141.573 13.354 A 8.434 8.434 0 0 0 141.51 14.4 A 7.427 7.427 0 0 0 141.688 16.056 A 6.098 6.098 0 0 0 142.14 17.355 A 5.461 5.461 0 0 0 143.052 18.709 A 4.837 4.837 0 0 0 143.865 19.41 A 4.229 4.229 0 0 0 146.31 20.16 Q 147.42 20.16 148.425 19.635 Q 149.43 19.11 150.12 18.27 Z M 125.16 13.32 L 133.71 13.32 A 7.307 7.307 0 0 0 133.589 11.944 Q 133.44 11.169 133.109 10.562 A 3.727 3.727 0 0 0 132.57 9.81 A 3.747 3.747 0 0 0 130.482 8.677 A 5.519 5.519 0 0 0 129.42 8.58 Q 127.68 8.58 126.54 9.795 Q 125.4 11.01 125.16 13.32 Z M 50.681 3.386 A 1.792 1.792 0 0 0 51.99 3.93 A 2.453 2.453 0 0 0 52.439 3.891 A 1.694 1.694 0 0 0 53.37 3.405 A 1.733 1.733 0 0 0 53.797 2.665 A 2.253 2.253 0 0 0 53.88 2.04 A 2.176 2.176 0 0 0 53.88 2.016 A 1.818 1.818 0 0 0 53.325 0.705 Q 52.77 0.15 51.99 0.15 Q 51.12 0.15 50.61 0.66 Q 50.1 1.17 50.1 2.04 A 1.797 1.797 0 0 0 50.248 2.766 A 1.993 1.993 0 0 0 50.655 3.36 A 2.242 2.242 0 0 0 50.681 3.386 Z M 158.231 3.386 A 1.792 1.792 0 0 0 159.54 3.93 A 2.453 2.453 0 0 0 159.989 3.891 A 1.694 1.694 0 0 0 160.92 3.405 A 1.733 1.733 0 0 0 161.347 2.665 A 2.253 2.253 0 0 0 161.43 2.04 A 2.176 2.176 0 0 0 161.43 2.016 A 1.818 1.818 0 0 0 160.875 0.705 Q 160.32 0.15 159.54 0.15 Q 158.67 0.15 158.16 0.66 Q 157.65 1.17 157.65 2.04 A 1.797 1.797 0 0 0 157.798 2.766 A 1.993 1.993 0 0 0 158.205 3.36 A 2.242 2.242 0 0 0 158.231 3.386 Z" vector-effect="non-scaling-stroke"/></g></svg>