<svg width="122.46" height="25.32" viewBox="0 0 122.46 25.32" xmlns="http://www.w3.org/2000/svg"><g id="svgGroup" stroke-linecap="round" fill-rule="evenodd" font-size="9pt" stroke="#c4b7b7" stroke-width="0.50mm" fill="#bab3b3" style="stroke:#c4b7b7;stroke-width:0.50mm;fill:#bab3b3"><path d="M 102.36 23.19 L 99.66 23.19 L 99.66 7.59 L 102.27 7.59 L 102.27 10.2 Q 103.11 8.94 104.4 8.085 Q 105.69 7.23 107.34 7.23 A 6.298 6.298 0 0 1 108.665 7.362 Q 109.561 7.555 110.246 8.029 A 3.938 3.938 0 0 1 110.385 8.13 Q 111.57 9.03 112.05 10.53 Q 112.98 9.15 114.255 8.19 A 4.701 4.701 0 0 1 116.292 7.325 A 6.434 6.434 0 0 1 117.42 7.23 A 6.431 6.431 0 0 1 118.886 7.387 Q 120.359 7.732 121.215 8.835 Q 122.46 10.44 122.46 13.02 L 122.46 23.19 L 119.76 23.19 L 119.76 13.23 Q 119.76 11.866 119.229 10.938 A 3.295 3.295 0 0 0 119.01 10.605 A 2.392 2.392 0 0 0 117.266 9.616 A 3.203 3.203 0 0 0 116.94 9.6 Q 115.59 9.6 114.435 10.605 Q 113.28 11.61 112.41 12.96 L 112.41 23.19 L 109.71 23.19 L 109.71 13.23 Q 109.71 11.866 109.179 10.938 A 3.295 3.295 0 0 0 108.96 10.605 A 2.392 2.392 0 0 0 107.216 9.616 A 3.203 3.203 0 0 0 106.89 9.6 A 3.606 3.606 0 0 0 104.994 10.148 A 4.873 4.873 0 0 0 104.4 10.575 Q 103.23 11.55 102.36 12.87 L 102.36 23.19 Z M 0 21.42 L 1.44 19.02 Q 2.52 19.92 3.87 20.49 A 7.005 7.005 0 0 0 5.481 20.943 A 9.635 9.635 0 0 0 7.02 21.06 A 8.394 8.394 0 0 0 8.384 20.956 Q 9.608 20.754 10.44 20.16 A 3.084 3.084 0 0 0 11.279 19.288 Q 11.674 18.657 11.698 17.84 A 3.634 3.634 0 0 0 11.7 17.73 A 3.582 3.582 0 0 0 11.599 16.862 A 2.945 2.945 0 0 0 11.34 16.185 Q 10.982 15.513 9.955 14.871 A 7.652 7.652 0 0 0 9.945 14.865 A 9.631 9.631 0 0 0 9.203 14.452 Q 8.411 14.051 7.28 13.614 A 35.577 35.577 0 0 0 6.9 13.47 A 27.124 27.124 0 0 1 5.518 12.891 Q 4.84 12.583 4.278 12.273 A 11.849 11.849 0 0 1 3.45 11.775 A 6.579 6.579 0 0 1 2.523 11.041 Q 2.008 10.546 1.691 9.986 A 3.991 3.991 0 0 1 1.605 9.825 A 5 5 0 0 1 1.149 8.424 A 6.878 6.878 0 0 1 1.05 7.23 Q 1.05 5.73 1.875 4.515 A 5.153 5.153 0 0 1 3.211 3.184 A 7.016 7.016 0 0 1 4.305 2.565 A 7.667 7.667 0 0 1 6.075 2.014 Q 6.865 1.865 7.768 1.836 A 13.568 13.568 0 0 1 8.19 1.83 A 15.869 15.869 0 0 1 9.956 1.924 A 11.831 11.831 0 0 1 11.535 2.205 Q 13.02 2.58 14.43 3.27 L 13.38 5.7 A 9.449 9.449 0 0 0 12.142 5.094 A 12.506 12.506 0 0 0 10.995 4.695 A 10.02 10.02 0 0 0 8.13 4.29 A 8.156 8.156 0 0 0 6.921 4.374 Q 5.776 4.546 5.01 5.07 A 2.97 2.97 0 0 0 4.361 5.659 A 2.208 2.208 0 0 0 3.87 7.08 Q 3.87 7.86 4.2 8.46 A 2.073 2.073 0 0 0 4.52 8.887 Q 4.858 9.241 5.427 9.584 A 7.05 7.05 0 0 0 5.505 9.63 A 9.901 9.901 0 0 0 6.17 9.982 Q 6.851 10.312 7.814 10.687 A 39.004 39.004 0 0 0 8.43 10.92 Q 10.77 11.79 12.135 12.75 Q 13.5 13.71 14.07 14.835 A 5.274 5.274 0 0 1 14.592 16.594 A 6.647 6.647 0 0 1 14.64 17.4 A 6.513 6.513 0 0 1 14.44 19.05 A 5.131 5.131 0 0 1 13.665 20.73 A 5.885 5.885 0 0 1 11.586 22.537 A 7.307 7.307 0 0 1 10.965 22.83 A 9.156 9.156 0 0 1 8.742 23.431 A 12.008 12.008 0 0 1 7.02 23.55 A 14.21 14.21 0 0 1 4.687 23.366 A 11.415 11.415 0 0 1 3.03 22.965 A 11.462 11.462 0 0 1 1.42 22.31 A 8.53 8.53 0 0 1 0 21.42 Z M 64.8 21.42 L 66.24 19.02 Q 67.32 19.92 68.67 20.49 A 7.005 7.005 0 0 0 70.281 20.943 A 9.635 9.635 0 0 0 71.82 21.06 A 8.394 8.394 0 0 0 73.184 20.956 Q 74.408 20.754 75.24 20.16 A 3.084 3.084 0 0 0 76.079 19.288 Q 76.474 18.657 76.498 17.84 A 3.634 3.634 0 0 0 76.5 17.73 A 3.582 3.582 0 0 0 76.399 16.862 A 2.945 2.945 0 0 0 76.14 16.185 Q 75.782 15.513 74.755 14.871 A 7.652 7.652 0 0 0 74.745 14.865 A 9.631 9.631 0 0 0 74.003 14.452 Q 73.211 14.051 72.08 13.614 A 35.577 35.577 0 0 0 71.7 13.47 A 27.124 27.124 0 0 1 70.318 12.891 Q 69.64 12.583 69.078 12.273 A 11.849 11.849 0 0 1 68.25 11.775 A 6.579 6.579 0 0 1 67.323 11.041 Q 66.808 10.546 66.491 9.986 A 3.991 3.991 0 0 1 66.405 9.825 A 5 5 0 0 1 65.949 8.424 A 6.878 6.878 0 0 1 65.85 7.23 Q 65.85 5.73 66.675 4.515 A 5.153 5.153 0 0 1 68.011 3.184 A 7.016 7.016 0 0 1 69.105 2.565 A 7.667 7.667 0 0 1 70.875 2.014 Q 71.665 1.865 72.568 1.836 A 13.568 13.568 0 0 1 72.99 1.83 A 15.869 15.869 0 0 1 74.756 1.924 A 11.831 11.831 0 0 1 76.335 2.205 Q 77.82 2.58 79.23 3.27 L 78.18 5.7 A 9.449 9.449 0 0 0 76.942 5.094 A 12.506 12.506 0 0 0 75.795 4.695 A 10.02 10.02 0 0 0 72.93 4.29 A 8.156 8.156 0 0 0 71.721 4.374 Q 70.576 4.546 69.81 5.07 A 2.97 2.97 0 0 0 69.161 5.659 A 2.208 2.208 0 0 0 68.67 7.08 Q 68.67 7.86 69 8.46 A 2.073 2.073 0 0 0 69.32 8.887 Q 69.658 9.241 70.227 9.584 A 7.05 7.05 0 0 0 70.305 9.63 A 9.901 9.901 0 0 0 70.97 9.982 Q 71.651 10.312 72.614 10.687 A 39.004 39.004 0 0 0 73.23 10.92 Q 75.57 11.79 76.935 12.75 Q 78.3 13.71 78.87 14.835 A 5.274 5.274 0 0 1 79.392 16.594 A 6.647 6.647 0 0 1 79.44 17.4 A 6.513 6.513 0 0 1 79.24 19.05 A 5.131 5.131 0 0 1 78.465 20.73 A 5.885 5.885 0 0 1 76.386 22.537 A 7.307 7.307 0 0 1 75.765 22.83 A 9.156 9.156 0 0 1 73.542 23.431 A 12.008 12.008 0 0 1 71.82 23.55 A 14.21 14.21 0 0 1 69.487 23.366 A 11.415 11.415 0 0 1 67.83 22.965 A 11.462 11.462 0 0 1 66.22 22.31 A 8.53 8.53 0 0 1 64.8 21.42 Z M 31.17 16.5 L 20.25 16.5 A 7.226 7.226 0 0 0 20.592 18.008 Q 20.993 19.151 21.78 19.92 A 4.243 4.243 0 0 0 24.067 21.063 A 6.006 6.006 0 0 0 25.11 21.15 A 11.019 11.019 0 0 0 26.392 21.079 A 8.273 8.273 0 0 0 27.54 20.865 Q 28.62 20.58 29.61 20.13 L 30.24 22.44 A 12.231 12.231 0 0 1 28.94 22.928 A 15.559 15.559 0 0 1 27.81 23.235 A 11.674 11.674 0 0 1 26.282 23.481 A 15.608 15.608 0 0 1 24.78 23.55 A 8.495 8.495 0 0 1 22.456 23.248 A 6.332 6.332 0 0 1 19.455 21.405 A 7.056 7.056 0 0 1 17.893 18.543 Q 17.49 17.144 17.49 15.39 A 10.608 10.608 0 0 1 17.74 13.043 A 8.652 8.652 0 0 1 18.375 11.205 A 7.393 7.393 0 0 1 19.88 9.08 A 6.866 6.866 0 0 1 20.85 8.295 Q 22.44 7.23 24.54 7.23 A 8.566 8.566 0 0 1 26.181 7.379 Q 27.184 7.575 27.985 8.028 A 5.164 5.164 0 0 1 28.275 8.205 Q 29.76 9.18 30.51 10.83 A 8.456 8.456 0 0 1 31.238 13.789 A 10.03 10.03 0 0 1 31.26 14.46 A 22.561 22.561 0 0 1 31.173 16.469 A 20.779 20.779 0 0 1 31.17 16.5 Z M 95.97 16.5 L 85.05 16.5 A 7.226 7.226 0 0 0 85.392 18.008 Q 85.793 19.151 86.58 19.92 A 4.243 4.243 0 0 0 88.867 21.063 A 6.006 6.006 0 0 0 89.91 21.15 A 11.019 11.019 0 0 0 91.192 21.079 A 8.273 8.273 0 0 0 92.34 20.865 Q 93.42 20.58 94.41 20.13 L 95.04 22.44 A 12.231 12.231 0 0 1 93.74 22.928 A 15.559 15.559 0 0 1 92.61 23.235 A 11.674 11.674 0 0 1 91.082 23.481 A 15.608 15.608 0 0 1 89.58 23.55 A 8.495 8.495 0 0 1 87.256 23.248 A 6.332 6.332 0 0 1 84.255 21.405 A 7.056 7.056 0 0 1 82.693 18.543 Q 82.29 17.144 82.29 15.39 A 10.608 10.608 0 0 1 82.54 13.043 A 8.652 8.652 0 0 1 83.175 11.205 A 7.393 7.393 0 0 1 84.68 9.08 A 6.866 6.866 0 0 1 85.65 8.295 Q 87.24 7.23 89.34 7.23 A 8.566 8.566 0 0 1 90.981 7.379 Q 91.984 7.575 92.785 8.028 A 5.164 5.164 0 0 1 93.075 8.205 Q 94.56 9.18 95.31 10.83 A 8.456 8.456 0 0 1 96.038 13.789 A 10.03 10.03 0 0 1 96.06 14.46 A 22.561 22.561 0 0 1 95.973 16.469 A 20.779 20.779 0 0 1 95.97 16.5 Z M 62.49 0.75 L 54.03 25.32 L 51.81 24.57 L 60.27 0 L 62.49 0.75 Z M 38.838 23.148 A 8.164 8.164 0 0 0 41.43 23.55 A 9.218 9.218 0 0 0 42.112 23.525 A 7.577 7.577 0 0 0 45.405 22.53 Q 47.16 21.51 48.18 19.665 A 7.877 7.877 0 0 0 48.976 17.523 A 10.255 10.255 0 0 0 49.2 15.33 A 10.363 10.363 0 0 0 49.054 13.557 A 7.738 7.738 0 0 0 48.165 11.025 Q 47.13 9.21 45.375 8.22 A 7.455 7.455 0 0 0 43.983 7.612 A 8.321 8.321 0 0 0 41.43 7.23 A 9.398 9.398 0 0 0 40.956 7.242 A 7.851 7.851 0 0 0 37.47 8.22 Q 35.7 9.21 34.68 11.04 Q 33.66 12.87 33.66 15.39 Q 33.66 17.79 34.665 19.635 Q 35.67 21.48 37.44 22.515 A 7.368 7.368 0 0 0 38.838 23.148 Z M 41.43 21.15 A 5.622 5.622 0 0 0 42.998 20.943 A 4.2 4.2 0 0 0 45.12 19.545 A 5.641 5.641 0 0 0 46.266 17.118 A 8.131 8.131 0 0 0 46.44 15.39 A 6.413 6.413 0 0 0 46.073 13.204 A 6.004 6.004 0 0 0 45.78 12.525 A 5.759 5.759 0 0 0 44.528 10.854 A 5.451 5.451 0 0 0 43.995 10.425 Q 42.87 9.63 41.43 9.63 A 5.775 5.775 0 0 0 39.862 9.831 A 4.211 4.211 0 0 0 37.74 11.19 A 5.363 5.363 0 0 0 36.638 13.402 Q 36.44 14.199 36.422 15.135 A 9.86 9.86 0 0 0 36.42 15.33 Q 36.42 16.89 37.08 18.225 A 5.831 5.831 0 0 0 38.139 19.737 A 5.288 5.288 0 0 0 38.865 20.355 Q 39.99 21.15 41.43 21.15 Z M 20.22 14.31 L 28.77 14.31 A 7.307 7.307 0 0 0 28.649 12.934 Q 28.5 12.159 28.169 11.552 A 3.727 3.727 0 0 0 27.63 10.8 A 3.747 3.747 0 0 0 25.542 9.667 A 5.519 5.519 0 0 0 24.48 9.57 Q 22.74 9.57 21.6 10.785 Q 20.46 12 20.22 14.31 Z M 85.02 14.31 L 93.57 14.31 A 7.307 7.307 0 0 0 93.449 12.934 Q 93.3 12.159 92.969 11.552 A 3.727 3.727 0 0 0 92.43 10.8 A 3.747 3.747 0 0 0 90.342 9.667 A 5.519 5.519 0 0 0 89.28 9.57 Q 87.54 9.57 86.4 10.785 Q 85.26 12 85.02 14.31 Z" vector-effect="non-scaling-stroke"/></g></svg>